<svg width="400" height="400" viewBox="0 0 400 400" fill="none" xmlns="http://www.w3.org/2000/svg">
<path d="M201.749 67.0486C201.749 59.2604 195.451 52.87 187.553 52.87H37.196C29.3982 52.87 23 59.1605 23 67.0486V294.506C23 302.294 29.2982 308.685 37.196 308.685H328.114C335.911 308.685 342.31 302.394 342.31 294.506V95.4059C342.31 87.6177 336.011 81.2273 328.114 81.2273H215.845C208.148 81.2273 201.749 74.9368 201.749 67.0486Z" fill="#F0F3F5"/>
<path fill-rule="evenodd" clip-rule="evenodd" d="M326.613 52.7717C326.613 41.2975 335.926 32 347.408 32C358.89 32 368.203 41.2975 368.203 52.7717C368.203 64.2459 358.89 73.5435 347.408 73.5435C335.926 73.5435 326.613 64.2459 326.613 52.7717ZM347.408 36C338.13 36 330.613 43.5113 330.613 52.7717C330.613 62.0322 338.13 69.5435 347.408 69.5435C356.686 69.5435 364.203 62.0322 364.203 52.7717C364.203 43.5113 356.686 36 347.408 36Z" fill="#999999"/>
<path fill-rule="evenodd" clip-rule="evenodd" d="M359.489 65.4356C360.27 64.6541 361.536 64.6534 362.317 65.4339L377.413 80.5112C378.195 81.2918 378.195 82.5581 377.415 83.3396C376.634 84.1212 375.368 84.1219 374.586 83.3414L359.491 68.2641C358.709 67.4835 358.708 66.2172 359.489 65.4356ZM96.6782 124.959C97.7828 124.959 98.6782 125.854 98.6782 126.959V135.645C98.6782 136.75 97.7828 137.645 96.6782 137.645C95.5737 137.645 94.6782 136.75 94.6782 135.645V126.959C94.6782 125.854 95.5737 124.959 96.6782 124.959ZM75.084 146.529C75.084 145.424 75.9794 144.529 77.084 144.529H85.7815C86.8861 144.529 87.7815 145.424 87.7815 146.529C87.7815 147.634 86.8861 148.529 85.7815 148.529H77.084C75.9794 148.529 75.084 147.634 75.084 146.529ZM105.476 146.529C105.476 145.424 106.371 144.529 107.476 144.529H116.273C117.378 144.529 118.273 145.424 118.273 146.529C118.273 147.634 117.378 148.529 116.273 148.529H107.476C106.371 148.529 105.476 147.634 105.476 146.529ZM96.6782 153.216C97.7828 153.216 98.6782 154.111 98.6782 155.216V166.1C98.6782 167.204 97.7828 168.1 96.6782 168.1C95.5737 168.1 94.6782 167.204 94.6782 166.1V155.216C94.6782 154.111 95.5737 153.216 96.6782 153.216Z" fill="#999999"/>
<path fill-rule="evenodd" clip-rule="evenodd" d="M76.4849 206.443C67.59 206.443 60.29 213.738 60.29 222.616V347.827C60.29 356.706 67.59 364 76.4849 364H269.83C278.725 364 286.025 356.706 286.025 347.827V222.616C286.025 213.738 278.725 206.443 269.83 206.443H76.4849ZM56.29 222.616C56.29 211.524 65.3855 202.443 76.4849 202.443H269.83C280.93 202.443 290.025 211.524 290.025 222.616V347.827C290.025 358.919 280.93 368 269.83 368H76.4849C65.3855 368 56.29 358.919 56.29 347.827V222.616Z" fill="#999999"/>
<path d="M76.9847 227.91C79.8557 227.91 82.1832 225.585 82.1832 222.717C82.1832 219.85 79.8557 217.525 76.9847 217.525C74.1136 217.525 71.7861 219.85 71.7861 222.717C71.7861 225.585 74.1136 227.91 76.9847 227.91Z" fill="#999999"/>
<path d="M93.8792 227.91C96.7503 227.91 99.0777 225.585 99.0777 222.717C99.0777 219.85 96.7503 217.525 93.8792 217.525C91.0081 217.525 88.6807 219.85 88.6807 222.717C88.6807 225.585 91.0081 227.91 93.8792 227.91Z" fill="#999999"/>
<path d="M110.775 227.91C113.646 227.91 115.973 225.585 115.973 222.717C115.973 219.85 113.646 217.525 110.775 217.525C107.904 217.525 105.576 219.85 105.576 222.717C105.576 225.585 107.904 227.91 110.775 227.91Z" fill="#999999"/>
<path fill-rule="evenodd" clip-rule="evenodd" d="M56.4902 241.188C56.4902 240.083 57.3857 239.188 58.4902 239.188H287.325C288.43 239.188 289.325 240.083 289.325 241.188C289.325 242.293 288.43 243.188 287.325 243.188H58.4902C57.3857 243.188 56.4902 242.293 56.4902 241.188Z" fill="#999999"/>
<path d="M158.262 130.055V288.517C158.262 328.457 176.457 331.552 184.654 331.552C192.852 331.552 345.709 327.358 345.709 327.358C345.709 327.358 322.015 311.682 322.015 275.037V103.795L187.653 99.4015L158.262 130.055Z" fill="#FFD493"/>
<path fill-rule="evenodd" clip-rule="evenodd" d="M185.154 130.656L158.262 130.057L187.953 99.5031V127.761C187.953 129.358 186.654 130.656 185.154 130.656ZM209.147 307.791C209.147 307.791 209.947 327.661 184.654 331.555C197.747 331.555 236.075 330.385 272.247 329.282C304.568 328.295 335.168 327.361 344.508 327.361C364.303 327.361 368.202 303.298 368.202 303.298L209.147 307.791Z" fill="#FFBE5C"/>
<path fill-rule="evenodd" clip-rule="evenodd" d="M278.328 197.753C280.228 193.959 281.128 189.266 281.128 183.575C281.128 179.081 280.428 174.888 278.928 170.794C277.429 166.9 275.329 163.405 272.43 160.509C269.531 157.614 265.832 155.317 261.233 153.62C256.634 151.922 251.236 151.124 244.938 151.124C238.64 151.124 233.641 151.723 229.842 153.021C226.043 154.319 222.844 155.717 220.345 157.015V169.296C222.244 168.098 225.043 166.8 228.742 165.402C232.441 164.104 237.34 163.405 243.538 163.405C248.537 163.405 252.536 163.904 255.635 165.102C258.734 166.201 261.133 167.798 262.833 169.596C264.532 171.393 265.632 173.49 266.232 175.886C266.832 178.283 267.131 180.779 267.131 183.275C267.131 187.668 266.232 191.263 264.532 194.059C262.833 196.855 260.633 199.251 257.934 201.248C255.235 203.245 252.336 205.042 249.337 206.64C246.237 208.337 243.438 210.135 240.739 212.331C238.04 214.528 235.84 217.124 234.141 220.319C232.441 223.515 231.542 227.608 231.542 232.601V235.297H243.338V232.501C243.338 229.505 244.238 226.909 246.137 224.813C248.037 222.716 250.336 220.719 253.135 219.021C255.935 217.224 258.934 215.527 262.233 213.729C265.532 212.032 268.531 209.835 271.33 207.239C274.129 204.743 276.429 201.548 278.328 197.753ZM230.942 263.554C232.741 265.451 235.141 266.35 237.94 266.35C240.739 266.35 243.138 265.451 244.938 263.554C246.837 261.657 247.737 259.361 247.737 256.665C247.737 253.969 246.737 251.672 244.938 249.775C243.138 247.878 240.739 246.979 237.94 246.979C235.141 246.979 232.741 247.878 230.942 249.775C229.042 251.672 228.143 253.969 228.143 256.665C228.143 259.46 229.142 261.757 230.942 263.554Z" fill="#DD7E10"/>
</svg>
