<svg width="42" height="42" viewBox="0 0 42 42" fill="none" xmlns="http://www.w3.org/2000/svg">
<path fill-rule="evenodd" clip-rule="evenodd" d="M19.409 0.65901C20.2877 -0.21967 21.7123 -0.21967 22.591 0.65901L30.091 8.15901C30.9697 9.03769 30.9697 10.4623 30.091 11.341C29.2123 12.2197 27.7877 12.2197 26.909 11.341L23.25 7.68198V30.75C23.25 31.9926 22.2426 33 21 33C19.7574 33 18.75 31.9926 18.75 30.75V7.68198L15.091 11.341C14.2123 12.2197 12.7877 12.2197 11.909 11.341C11.0303 10.4623 11.0303 9.03769 11.909 8.15901L19.409 0.65901ZM9.75 16.5C10.9926 16.5 12 17.5074 12 18.75C12 19.9926 10.9926 21 9.75 21H9C6.51472 21 4.5 23.0147 4.5 25.5V33C4.5 35.4853 6.51472 37.5 9 37.5H33C35.4853 37.5 37.5 35.4853 37.5 33V25.5C37.5 23.0147 35.4853 21 33 21H32.25C31.0074 21 30 19.9926 30 18.75C30 17.5074 31.0074 16.5 32.25 16.5H33C37.9706 16.5 42 20.5294 42 25.5V33C42 37.9706 37.9706 42 33 42H9C4.02944 42 0 37.9706 0 33V25.5C0 20.5294 4.02944 16.5 9 16.5H9.75Z" fill="#FFBE5C"/>
</svg>
